<?xml version="1.0" standalone="no"?>
<!DOCTYPE svg PUBLIC "-//W3C//DTD SVG 20010904//EN"
 "http://www.w3.org/TR/2001/REC-SVG-20010904/DTD/svg10.dtd">
<svg version="1.0" xmlns="http://www.w3.org/2000/svg"
 width="400.000000pt" height="400.000000pt" viewBox="0 0 400.000000 400.000000"
 preserveAspectRatio="xMidYMid meet">
<metadata>
Created by potrace 1.14, written by Peter Selinger 2001-2017
</metadata>
<g transform="translate(0.000000,400.000000) scale(0.100000,-0.100000)"
fill="#000000" stroke="none">
<path d="M1516 3503 c-88 -152 -159 -281 -159 -288 0 -7 71 -137 159 -289
l159 -276 324 2 325 3 161 280 162 280 -110 190 c-60 104 -134 232 -164 283
l-54 92 -322 0 -322 0 -159 -277z m922 -32 c78 -136 142 -252 142 -256 0 -5
-64 -120 -142 -256 l-143 -249 -296 0 -297 0 -143 247 c-78 136 -142 252 -142
257 0 6 64 122 142 259 l143 247 297 0 296 0 143 -249z"/>
<path d="M464 2938 c-86 -150 -157 -278 -157 -284 0 -6 71 -136 159 -287 l159
-277 325 3 325 2 162 280 c144 249 160 282 149 300 -7 11 -79 136 -161 278
l-149 257 -327 0 -327 0 -158 -272z m924 -26 c78 -137 142 -253 142 -258 0 -5
-65 -122 -144 -259 l-144 -250 -293 0 -294 0 -147 255 c-131 227 -146 257
-134 275 7 11 72 125 146 253 l133 232 296 0 296 0 143 -248z"/>
<path d="M2575 2953 c-82 -142 -154 -267 -161 -278 -11 -18 5 -50 149 -300
l162 -280 325 -2 325 -3 159 277 c88 151 159 281 159 287 0 6 -71 134 -157
284 l-158 272 -327 0 -328 0 -148 -257z m905 -25 c74 -128 139 -242 146 -253
12 -18 -2 -47 -134 -275 l-148 -255 -293 0 -293 0 -144 250 c-79 137 -144 254
-144 259 0 5 64 121 143 257 l142 249 296 0 296 0 133 -232z"/>
<path d="M1511 2280 l-161 -280 161 -280 161 -280 326 0 327 0 158 275 c86
151 157 279 157 285 0 6 -71 134 -157 285 l-158 275 -327 0 -326 0 -161 -280z
m926 -23 c78 -136 143 -252 143 -257 0 -5 -65 -121 -143 -257 l-144 -248 -294
-3 -294 -2 -147 255 -147 255 147 255 147 255 294 -2 294 -3 144 -248z"/>
<path d="M462 1720 l-162 -281 162 -279 161 -280 326 0 326 0 161 280 162 279
-162 280 -161 281 -325 0 -326 0 -162 -280z m924 -20 c79 -135 142 -253 141
-262 -1 -10 -65 -127 -142 -262 l-140 -245 -295 -1 -295 0 -147 255 -147 254
147 256 147 255 294 -3 295 -2 142 -245z"/>
<path d="M2564 1719 l-162 -280 162 -279 161 -280 326 0 326 0 161 280 162
279 -162 281 -162 280 -326 0 -325 0 -161 -281z m928 -25 l147 -255 -147 -254
-147 -255 -295 2 -295 3 -142 245 c-78 135 -142 251 -143 258 0 10 218 396
276 490 l14 22 293 0 292 0 147 -256z"/>
<path d="M1516 1074 c-88 -152 -159 -282 -159 -289 0 -7 71 -136 159 -288
l159 -277 322 0 322 0 54 92 c30 51 104 179 164 283 l110 190 -162 280 -161
280 -325 3 -324 2 -159 -276z m922 -33 c78 -136 142 -251 142 -256 0 -4 -64
-120 -142 -256 l-143 -249 -296 0 -297 0 -143 247 c-78 137 -142 253 -142 258
0 6 64 121 142 258 l143 247 297 0 296 0 143 -249z"/>
</g>
</svg>
